<?xml version="1.0" standalone="no"?>
<!DOCTYPE svg PUBLIC "-//W3C//DTD SVG 20010904//EN"
 "http://www.w3.org/TR/2001/REC-SVG-20010904/DTD/svg10.dtd">
<svg version="1.0" xmlns="http://www.w3.org/2000/svg"
 width="500.000000pt" height="500.000000pt" viewBox="0 0 500.000000 500.000000"
 preserveAspectRatio="xMidYMid meet">

<g transform="translate(0.000000,500.000000) scale(0.100000,-0.100000)"
fill="#000000" stroke="none">
<path d="M2760 3459 c-50 -44 -90 -86 -90 -93 0 -8 7 -19 15 -26 8 -6 14 -15
13 -18 -1 -4 2 -20 7 -36 8 -29 8 -29 24 -9 26 32 74 20 95 -23 9 -19 16 -37
16 -39 0 -3 -32 -5 -71 -5 -57 0 -70 3 -66 14 5 11 0 11 -24 -1 -28 -14 -32
-14 -54 7 l-23 22 -7 -21 c-6 -21 -10 -21 -315 -20 l-309 2 -4 26 -4 26 -2
-27 c-2 -52 -17 -28 -41 65 -13 50 -27 98 -33 105 -13 17 -358 17 -375 0 -19
-19 -14 -45 10 -62 18 -13 52 -16 159 -16 l136 0 72 -277 c39 -153 105 -408
146 -567 41 -160 80 -295 85 -300 8 -8 180 -11 541 -11 563 0 549 -1 549 45 0
46 11 45 -516 47 -274 1 -500 6 -504 10 -6 7 -40 132 -40 147 0 3 246 7 548 8
l547 3 117 345 c64 190 119 356 122 370 12 51 0 55 -179 58 l-165 3 40 52 c36
48 38 53 23 69 -34 37 -321 208 -349 208 -2 0 -45 -36 -94 -81z m175 -239 c15
-7 9 -9 -25 -9 -33 -1 -41 2 -30 9 18 12 28 12 55 0z m-839 -121 c4 -8 9 -8
17 0 6 6 39 11 74 11 l63 0 2 -92 2 -93 3 93 4 92 41 0 41 0 -19 -22 -19 -22
29 22 c36 28 46 28 47 0 l2 -23 4 23 c4 18 11 22 44 22 36 0 39 -2 39 -29 0
-40 20 -53 76 -49 l49 3 -3 -36 c-3 -29 2 -40 20 -53 27 -19 51 -20 78 -4 27
17 52 1 62 -40 5 -18 13 -32 18 -32 5 0 0 -16 -12 -36 -46 -77 -18 -195 66
-276 l38 -38 -193 0 c-169 0 -191 2 -173 14 11 8 37 19 59 25 47 13 135 77
146 107 4 11 3 27 -2 35 -8 11 -13 10 -29 -9 -13 -15 -27 -22 -42 -20 -23 4
-23 4 2 15 52 22 64 57 39 112 l-18 42 35 21 c38 23 42 51 8 56 -14 2 -29 -6
-42 -22 -11 -15 -27 -26 -35 -26 -9 0 -18 -4 -21 -9 -3 -5 -27 -14 -53 -20
-70 -17 -129 -50 -168 -93 -39 -42 -43 -66 -19 -104 22 -32 15 -37 -39 -29
l-45 7 5 82 c8 128 -5 134 -52 24 -45 -108 -44 -107 -55 -88 -7 11 -10 8 -15
-13 -4 -14 -13 -31 -20 -37 -16 -13 -11 -49 7 -63 10 -6 9 -8 -2 -4 -24 6 -45
73 -31 100 22 40 37 65 50 80 16 20 6 54 -20 62 -40 13 -15 47 76 104 28 17
47 31 44 31 -15 0 -88 -38 -144 -76 l-60 -40 -41 163 -41 163 58 0 c32 0 61
-5 65 -11z m634 -6 c1 -17 1 -17 14 0 11 14 30 17 124 17 92 0 111 -3 116 -16
6 -16 8 -16 24 0 10 9 29 16 42 16 l24 0 -28 -28 c-14 -16 -35 -51 -46 -78
l-19 -49 -1 52 0 51 -39 -5 c-31 -4 -42 -1 -61 18 -21 23 -22 23 -11 2 15 -30
13 -84 -4 -106 -15 -20 -80 -39 -106 -31 -19 5 -39 46 -39 79 0 52 -32 77 -45
35 -13 -40 -85 -9 -85 36 0 23 2 24 70 24 60 0 70 -3 70 -17z m640 9 c0 -13
-177 -537 -189 -560 -9 -17 -21 -22 -48 -22 l-37 0 41 43 c106 109 119 233 32
312 -32 29 -47 35 -82 35 -23 -1 -53 -7 -67 -15 -35 -20 -40 -19 -40 10 0 14
5 25 11 25 5 0 7 4 4 10 -3 6 1 7 10 4 22 -9 82 60 103 118 l17 48 122 0 c68
0 123 -3 123 -8z m-408 -181 l3 -38 -32 14 c-18 7 -42 13 -53 13 -25 0 -26 14
0 38 13 12 30 17 49 14 25 -3 30 -9 33 -41z m-129 -91 c-9 -16 -23 -30 -30
-30 -19 0 -16 13 7 38 30 32 44 27 23 -8z m-33 -75 c0 -8 -7 -15 -15 -15 -8 0
-15 7 -15 15 0 8 7 15 15 15 8 0 15 -7 15 -15z"/>
<path d="M2038 3089 c-14 -8 -18 -22 -16 -62 1 -47 2 -48 5 -12 3 22 10 43 16
47 9 5 8 8 -3 9 -8 0 -1 7 15 14 17 8 23 14 15 14 -8 0 -23 -4 -32 -10z"/>
<path d="M2140 3094 c8 -3 22 -8 30 -10 13 -5 13 -6 0 -14 -13 -8 -12 -10 3
-10 33 0 16 35 -18 37 -17 1 -23 0 -15 -3z"/>
<path d="M2088 3053 c12 -2 32 -2 45 0 12 2 2 4 -23 4 -25 0 -35 -2 -22 -4z"/>
<path d="M2282 3008 c-2 -53 8 -73 23 -48 3 6 2 10 -4 10 -5 0 -12 21 -14 48
-3 46 -3 46 -5 -10z"/>
<path d="M2182 3020 c0 -19 2 -27 5 -17 2 9 2 25 0 35 -3 9 -5 1 -5 -18z"/>
<path d="M2336 3012 l-19 -27 24 22 c12 12 21 24 18 27 -2 2 -13 -8 -23 -22z"/>
<path d="M2059 3017 c5 -5 26 -7 47 -5 l39 3 -47 5 c-26 3 -43 1 -39 -3z"/>
<path d="M2358 2993 c-18 -21 -31 -43 -25 -43 2 0 13 14 25 30 25 33 24 41 0
13z"/>
<path d="M2171 2944 c0 -11 3 -14 6 -6 3 7 2 16 -1 19 -3 4 -6 -2 -5 -13z"/>
<path d="M2030 2936 c0 -8 4 -17 9 -20 5 -4 7 3 4 14 -6 23 -13 26 -13 6z"/>
<path d="M2078 2903 c12 -2 32 -2 45 0 12 2 2 4 -23 4 -25 0 -35 -2 -22 -4z"/>
<path d="M2018 3421 c-2 -29 0 -37 8 -30 6 5 9 20 6 34 l-4 24 128 4 129 3
-131 2 -132 2 -4 -39z"/>
<path d="M2308 3425 c-3 -22 -9 -49 -13 -60 -3 -11 1 -7 10 8 9 15 15 42 13
60 -3 31 -3 31 -10 -8z"/>
<path d="M2243 3393 c9 -2 23 -2 30 0 6 3 -1 5 -18 5 -16 0 -22 -2 -12 -5z"/>
<path d="M2349 3368 c13 -14 21 -31 17 -36 -3 -5 1 -9 9 -9 22 0 18 10 -17 43
-30 26 -31 26 -9 2z"/>
<path d="M1986 3325 c-9 -26 -7 -32 5 -12 6 10 9 21 6 23 -2 3 -7 -2 -11 -11z"/>
<path d="M2243 3309 c-5 -17 -12 -20 -39 -17 -19 2 -34 0 -34 -5 0 -4 16 -7
36 -5 27 2 39 9 45 26 5 12 6 22 3 22 -3 0 -8 -9 -11 -21z"/>
<path d="M2200 3310 c0 -5 5 -10 10 -10 6 0 10 5 10 10 0 6 -4 10 -10 10 -5 0
-10 -4 -10 -10z"/>
<path d="M2561 3286 c-7 -8 -8 -17 -3 -20 6 -3 12 3 15 14 6 24 4 25 -12 6z"/>
<path d="M2289 3273 c-13 -16 -12 -17 4 -4 16 13 21 21 13 21 -2 0 -10 -8 -17
-17z"/>
<path d="M2257 3266 c-4 -10 -7 -25 -6 -34 0 -11 4 -9 10 7 5 13 8 29 6 35 -2
5 -6 2 -10 -8z"/>
<path d="M2197 2056 c-124 -45 -190 -172 -153 -297 28 -97 99 -157 205 -173
105 -16 224 61 255 165 20 66 20 82 0 148 -37 125 -184 200 -307 157z m185
-134 c34 -37 38 -47 38 -92 0 -28 -7 -64 -15 -80 -33 -63 -134 -92 -202 -57
-71 37 -98 139 -55 209 31 50 74 70 141 65 48 -4 58 -8 93 -45z"/>
<path d="M2920 2061 c-114 -37 -179 -122 -180 -234 0 -139 100 -240 240 -241
74 0 125 21 177 76 107 112 72 306 -69 379 -42 21 -131 32 -168 20z m140 -113
c48 -33 72 -83 67 -137 -6 -56 -32 -90 -89 -119 -40 -20 -51 -22 -87 -12 -134
36 -163 200 -48 270 45 28 115 26 157 -2z"/>
</g>
</svg>
